# xmcd
#
# Track frame offsets: 
#        150
#        12849
#        25283
#        38778
#        51156
#        63456
#        74718
#        87996
#        101744
#        121547
#        127534
#        140082
#        152625
#        164494
#        175915
#        188368
#        202208
#        212904
#        226982
#        239535
#
# Disc length: 3416 seconds
#
# Revision: 1
# Processed by: cddbd v1.5.2PL0 Copyright (c) Steve Scherf et al.
# Submitted via: ExactAudioCopyFreeDBPlugin 1.0
#
DISCID=190d5614
DTITLE=Various Artist - The Ultimate Country Gold Collection Disc 1
DYEAR=2000
DGENRE=Country
TTITLE0=Johnny Cash - Folsom Prison Blues
TTITLE1=Glen Campbell - By The Time I Get To Phoenix (Live)
TTITLE2=Merle Haggard - Games People Play (Live)
TTITLE3=Johnny Cash - I Walk The Line
TTITLE4=Roy Rogers - On The Old Spanish Trail
TTITLE5=Jim Reeves - Just Call Me Lonesome
TTITLE6=Hank Williams - You're Gonna Change (Or I'm Gonna Leave)
TTITLE7=Merle Haggard - That's the Way She Goes (Live)
TTITLE8=Glen Campbell - Wichita Lineman, Galveston (Live)
TTITLE9=Jim Reeves - Have I Told You Lately
TTITLE10=The Delmore Brothers - Freight Train Boogie
TTITLE11=Bill Monroe - Rocky Road Blues
TTITLE12=Kenny Rogers - A Poem for a Little Lady
TTITLE13=Patsy Cline - Crazy Dreams
TTITLE14=George Jones - Blue Side of Lonesome
TTITLE15=Don Williams - You're My Best Friend (Live)
TTITLE16=Patsy Cline - That's How Much I Love You
TTITLE17=George Jones - All I Have to Offer You (Is Me)
TTITLE18=Charley Pride - Crystal Chandeliers
TTITLE19=Willie Nelson - I Let My Mind Wander
EXTD=MasterSong Cat: 60000 Bar: 9316797600004
EXTT0=
EXTT1=
EXTT2=
EXTT3=
EXTT4=
EXTT5=
EXTT6=
EXTT7=
EXTT8=
EXTT9=
EXTT10=
EXTT11=
EXTT12=
EXTT13=
EXTT14=
EXTT15=
EXTT16=
EXTT17=
EXTT18=
EXTT19=
PLAYORDER=
